<svg xmlns="http://www.w3.org/2000/svg" viewBox="0 0 700 900"><rect width="700" height="900" fill="#d9e1e7"/><path d="M130 60 H570 V820 L545 800 L520 820 L495 800 L470 820 L445 800 L420 820 L395 800 L370 820 L345 800 L320 820 L295 800 L270 820 L245 800 L220 820 L195 800 L170 820 L145 800 L130 820Z" fill="#fff" stroke="#a8b0b6" stroke-width="5"/><text x="350" y="135" text-anchor="middle" font-family="Arial" font-size="34" font-weight="700" fill="#1f2e38">Jachthaven Demo</text><g font-family="Arial" font-size="25" fill="#33434d"><text x="175" y="220">Havengeld</text><text x="500" y="220">€ 28,50</text><text x="175" y="270">Stroom</text><text x="500" y="270">€ 4,00</text><text x="175" y="320">Toeristenbelasting</text><text x="500" y="320">€ 2,50</text><line x1="170" y1="370" x2="530" y2="370" stroke="#89949b" stroke-width="3"/><text x="175" y="430" font-weight="700">Totaal</text><text x="500" y="430" font-weight="700">€ 35,00</text><text x="175" y="560">TESTBON — GEEN ECHTE UITGAVE</text></g></svg>